<svg width="64" height="64" viewBox="0 0 64 64" fill="none" xmlns="http://www.w3.org/2000/svg">
<rect width="64" height="64" fill="white"/>
<path d="M5.38932 5.21339L5.2509 5.2509L5.21339 5.38932C4.96749 6.29692 4.76648 7.22298 4.6129 8.16493C4.37412 9.62946 4.25 11.1324 4.25 12.6641C4.25 20.1824 7.24018 27.0027 12.0956 32C7.24018 36.9973 4.25 43.8176 4.25 51.3359C4.25 52.8676 4.37412 54.3705 4.6129 55.8351C4.76648 56.777 4.96749 57.7031 5.21339 58.6107L5.2509 58.7491L5.38932 58.7866C6.29692 59.0325 7.22297 59.2335 8.16493 59.3871C9.62946 59.6259 11.1324 59.75 12.6641 59.75C20.1824 59.75 27.0027 56.7598 32 51.9044C36.9973 56.7598 43.8176 59.75 51.3359 59.75C52.8676 59.75 54.3705 59.6259 55.8351 59.3871C56.777 59.2335 57.7031 59.0325 58.6107 58.7866L58.7491 58.7491L58.7866 58.6107C59.0325 57.7031 59.2335 56.777 59.3871 55.8351C59.6259 54.3705 59.75 52.8676 59.75 51.3359C59.75 43.8176 56.7598 36.9973 51.9044 32C56.7598 27.0027 59.75 20.1824 59.75 12.6641C59.75 11.1324 59.6259 9.62946 59.3871 8.16493C59.2335 7.22298 59.0325 6.29692 58.7866 5.38932L58.7491 5.2509L58.6107 5.21339C57.7031 4.96749 56.777 4.76648 55.8351 4.6129C54.3705 4.37412 52.8676 4.25 51.3359 4.25C43.8176 4.25 36.9973 7.24018 32 12.0956C27.0027 7.24018 20.1824 4.25 12.6641 4.25C11.1324 4.25 9.62946 4.37412 8.16493 4.6129C7.22298 4.76648 6.29692 4.96749 5.38932 5.21339ZM12.7989 32C15.9996 28.8214 19.9849 26.4324 24.4382 25.1487C23.8816 27.3404 23.5859 29.6358 23.5859 32C23.5859 34.3642 23.8816 36.6596 24.4382 38.8513C19.9849 37.5676 15.9996 35.1786 12.7989 32ZM32 51.2011C28.8214 48.0004 26.4324 44.0151 25.1487 39.5618C27.3404 40.1184 29.6358 40.4141 32 40.4141C34.3642 40.4141 36.6596 40.1184 38.8513 39.5618C37.5676 44.0151 35.1786 48.0004 32 51.2011ZM51.2011 32C48.0004 35.1786 44.0151 37.5676 39.5618 38.8513C40.1184 36.6596 40.4141 34.3642 40.4141 32C40.4141 29.6358 40.1184 27.3404 39.5618 25.1487C44.0151 26.4324 48.0004 28.8214 51.2011 32ZM32 12.7989C35.1786 15.9996 37.5676 19.9849 38.8513 24.4382C36.6596 23.8816 34.3642 23.5859 32 23.5859C29.6358 23.5859 27.3404 23.8816 25.1487 24.4382C26.4324 19.9849 28.8214 15.9996 32 12.7989Z" fill="#191919" stroke="#191919" stroke-width="0.5"/>
</svg>
